<svg xmlns="http://www.w3.org/2000/svg" xmlns:xlink="http://www.w3.org/1999/xlink" width="120" zoomAndPan="magnify" viewBox="0 0 187.5 38.999999" height="42" preserveAspectRatio="xMidYMid meet" version="1.0"><defs><g/><clipPath id="ff8ea75b08"><path d="M 118.265625 6.972656 L 137.980469 6.972656 L 137.980469 26.6875 L 118.265625 26.6875 Z M 118.265625 6.972656 " clip-rule="nonzero"/></clipPath><clipPath id="2539ab6571"><path d="M 128.121094 6.972656 C 122.679688 6.972656 118.265625 11.382812 118.265625 16.828125 C 118.265625 22.273438 122.679688 26.6875 128.121094 26.6875 C 133.566406 26.6875 137.980469 22.273438 137.980469 16.828125 C 137.980469 11.382812 133.566406 6.972656 128.121094 6.972656 " clip-rule="nonzero"/></clipPath></defs><g fill="#ffffff" fill-opacity="1"><g transform="translate(28.842526, 25.871345)"><g><path d="M 4.359375 -18.28125 L 4.359375 -6.71875 C 4.359375 -5.09375 4.753906 -3.882812 5.546875 -3.09375 C 6.335938 -2.300781 7.441406 -1.90625 8.859375 -1.90625 C 10.253906 -1.90625 11.347656 -2.300781 12.140625 -3.09375 C 12.941406 -3.882812 13.34375 -5.09375 13.34375 -6.71875 L 13.34375 -18.28125 L 15.734375 -18.28125 L 15.734375 -6.734375 C 15.734375 -5.210938 15.425781 -3.929688 14.8125 -2.890625 C 14.195312 -1.859375 13.367188 -1.085938 12.328125 -0.578125 C 11.296875 -0.0664062 10.128906 0.1875 8.828125 0.1875 C 7.535156 0.1875 6.367188 -0.0664062 5.328125 -0.578125 C 4.296875 -1.085938 3.476562 -1.859375 2.875 -2.890625 C 2.269531 -3.929688 1.96875 -5.210938 1.96875 -6.734375 L 1.96875 -18.28125 Z M 4.359375 -18.28125 "/></g></g></g><g fill="#ffffff" fill-opacity="1"><g transform="translate(46.539532, 25.871345)"><g><path d="M 14.234375 -12.921875 C 14.234375 -11.398438 13.710938 -10.132812 12.671875 -9.125 C 11.628906 -8.125 10.046875 -7.625 7.921875 -7.625 L 4.40625 -7.625 L 4.40625 0 L 2.015625 0 L 2.015625 -18.28125 L 7.921875 -18.28125 C 9.984375 -18.28125 11.550781 -17.78125 12.625 -16.78125 C 13.695312 -15.78125 14.234375 -14.492188 14.234375 -12.921875 Z M 7.921875 -9.59375 C 9.242188 -9.59375 10.21875 -9.878906 10.84375 -10.453125 C 11.476562 -11.035156 11.796875 -11.859375 11.796875 -12.921875 C 11.796875 -15.179688 10.503906 -16.3125 7.921875 -16.3125 L 4.40625 -16.3125 L 4.40625 -9.59375 Z M 7.921875 -9.59375 "/></g></g></g><g fill="#ffffff" fill-opacity="1"><g transform="translate(61.719631, 25.871345)"><g><path d="M 12.828125 -4.0625 L 4.84375 -4.0625 L 3.375 0 L 0.859375 0 L 7.46875 -18.171875 L 10.21875 -18.171875 L 16.8125 0 L 14.296875 0 Z M 12.140625 -6 L 8.828125 -15.234375 L 5.53125 -6 Z M 12.140625 -6 "/></g></g></g><g fill="#ffffff" fill-opacity="1"><g transform="translate(79.390416, 25.871345)"><g/></g></g><g fill="#ffffff" fill-opacity="1"><g transform="translate(86.390563, 25.871345)"><g><path d="M 15.859375 -12.984375 C 15.359375 -14.046875 14.625 -14.867188 13.65625 -15.453125 C 12.695312 -16.035156 11.578125 -16.328125 10.296875 -16.328125 C 9.023438 -16.328125 7.878906 -16.035156 6.859375 -15.453125 C 5.835938 -14.867188 5.03125 -14.03125 4.4375 -12.9375 C 3.851562 -11.84375 3.5625 -10.582031 3.5625 -9.15625 C 3.5625 -7.71875 3.851562 -6.457031 4.4375 -5.375 C 5.03125 -4.289062 5.835938 -3.457031 6.859375 -2.875 C 7.878906 -2.289062 9.023438 -2 10.296875 -2 C 12.085938 -2 13.554688 -2.53125 14.703125 -3.59375 C 15.859375 -4.65625 16.535156 -6.097656 16.734375 -7.921875 L 9.4375 -7.921875 L 9.4375 -9.859375 L 19.265625 -9.859375 L 19.265625 -8.015625 C 19.128906 -6.515625 18.660156 -5.140625 17.859375 -3.890625 C 17.054688 -2.640625 16 -1.648438 14.6875 -0.921875 C 13.375 -0.203125 11.910156 0.15625 10.296875 0.15625 C 8.609375 0.15625 7.0625 -0.238281 5.65625 -1.03125 C 4.257812 -1.832031 3.15625 -2.9375 2.34375 -4.34375 C 1.53125 -5.757812 1.125 -7.363281 1.125 -9.15625 C 1.125 -10.9375 1.53125 -12.535156 2.34375 -13.953125 C 3.15625 -15.378906 4.257812 -16.488281 5.65625 -17.28125 C 7.0625 -18.082031 8.609375 -18.484375 10.296875 -18.484375 C 12.242188 -18.484375 13.960938 -18 15.453125 -17.03125 C 16.953125 -16.070312 18.039062 -14.722656 18.71875 -12.984375 Z M 15.859375 -12.984375 "/></g></g></g><g fill="#ffffff" fill-opacity="1"><g transform="translate(106.787998, 25.871345)"><g><path d="M 4.40625 -1.9375 L 10.796875 -1.9375 L 10.796875 0 L 2.015625 0 L 2.015625 -18.28125 L 4.40625 -18.28125 Z M 4.40625 -1.9375 "/></g></g></g><g fill="#ffffff" fill-opacity="1"><g transform="translate(118.114086, 25.871345)"><g><path d="M 10.296875 0.1875 C 8.609375 0.1875 7.0625 -0.207031 5.65625 -1 C 4.257812 -1.800781 3.15625 -2.910156 2.34375 -4.328125 C 1.53125 -5.753906 1.125 -7.363281 1.125 -9.15625 C 1.125 -10.9375 1.53125 -12.535156 2.34375 -13.953125 C 3.15625 -15.378906 4.257812 -16.488281 5.65625 -17.28125 C 7.0625 -18.082031 8.609375 -18.484375 10.296875 -18.484375 C 12.015625 -18.484375 13.570312 -18.082031 14.96875 -17.28125 C 16.363281 -16.488281 17.460938 -15.382812 18.265625 -13.96875 C 19.078125 -12.550781 19.484375 -10.945312 19.484375 -9.15625 C 19.484375 -7.351562 19.078125 -5.742188 18.265625 -4.328125 C 17.460938 -2.910156 16.363281 -1.800781 14.96875 -1 C 13.570312 -0.207031 12.015625 0.1875 10.296875 0.1875 Z M 10.296875 -1.890625 C 11.578125 -1.890625 12.726562 -2.1875 13.75 -2.78125 C 14.769531 -3.375 15.570312 -4.21875 16.15625 -5.3125 C 16.75 -6.414062 17.046875 -7.695312 17.046875 -9.15625 C 17.046875 -10.625 16.75 -11.898438 16.15625 -12.984375 C 15.570312 -14.078125 14.773438 -14.921875 13.765625 -15.515625 C 12.753906 -16.109375 11.597656 -16.40625 10.296875 -16.40625 C 9.003906 -16.40625 7.851562 -16.109375 6.84375 -15.515625 C 5.832031 -14.921875 5.03125 -14.078125 4.4375 -12.984375 C 3.851562 -11.898438 3.5625 -10.625 3.5625 -9.15625 C 3.5625 -7.695312 3.851562 -6.414062 4.4375 -5.3125 C 5.03125 -4.21875 5.835938 -3.375 6.859375 -2.78125 C 7.878906 -2.1875 9.023438 -1.890625 10.296875 -1.890625 Z M 10.296875 -1.890625 "/></g></g></g><g fill="#ffffff" fill-opacity="1"><g transform="translate(138.72127, 25.871345)"><g><path d="M 11.171875 -9.40625 C 11.835938 -9.300781 12.441406 -9.03125 12.984375 -8.59375 C 13.535156 -8.15625 13.972656 -7.613281 14.296875 -6.96875 C 14.617188 -6.320312 14.78125 -5.632812 14.78125 -4.90625 C 14.78125 -3.976562 14.546875 -3.140625 14.078125 -2.390625 C 13.609375 -1.648438 12.921875 -1.066406 12.015625 -0.640625 C 11.117188 -0.210938 10.054688 0 8.828125 0 L 2.015625 0 L 2.015625 -18.28125 L 8.578125 -18.28125 C 9.816406 -18.28125 10.875 -18.070312 11.75 -17.65625 C 12.625 -17.25 13.28125 -16.691406 13.71875 -15.984375 C 14.15625 -15.285156 14.375 -14.503906 14.375 -13.640625 C 14.375 -12.554688 14.078125 -11.660156 13.484375 -10.953125 C 12.898438 -10.242188 12.128906 -9.726562 11.171875 -9.40625 Z M 4.40625 -10.375 L 8.421875 -10.375 C 9.535156 -10.375 10.394531 -10.632812 11 -11.15625 C 11.613281 -11.6875 11.921875 -12.414062 11.921875 -13.34375 C 11.921875 -14.269531 11.613281 -14.992188 11 -15.515625 C 10.394531 -16.046875 9.515625 -16.3125 8.359375 -16.3125 L 4.40625 -16.3125 Z M 8.625 -1.96875 C 9.8125 -1.96875 10.738281 -2.242188 11.40625 -2.796875 C 12.070312 -3.359375 12.40625 -4.140625 12.40625 -5.140625 C 12.40625 -6.148438 12.050781 -6.945312 11.34375 -7.53125 C 10.644531 -8.125 9.710938 -8.421875 8.546875 -8.421875 L 4.40625 -8.421875 L 4.40625 -1.96875 Z M 8.625 -1.96875 "/></g></g></g><g fill="#ffffff" fill-opacity="1"><g transform="translate(154.792774, 25.871345)"><g><path d="M 12.828125 -4.0625 L 4.84375 -4.0625 L 3.375 0 L 0.859375 0 L 7.46875 -18.171875 L 10.21875 -18.171875 L 16.8125 0 L 14.296875 0 Z M 12.140625 -6 L 8.828125 -15.234375 L 5.53125 -6 Z M 12.140625 -6 "/></g></g></g><g fill="#ffffff" fill-opacity="1"><g transform="translate(172.463557, 25.871345)"><g><path d="M 4.40625 -1.9375 L 10.796875 -1.9375 L 10.796875 0 L 2.015625 0 L 2.015625 -18.28125 L 4.40625 -18.28125 Z M 4.40625 -1.9375 "/></g></g></g><g clip-path="url(#ff8ea75b08)"><g clip-path="url(#2539ab6571)"><path fill="#5e17eb" d="M 118.265625 6.972656 L 137.980469 6.972656 L 137.980469 26.6875 L 118.265625 26.6875 Z M 118.265625 6.972656 " fill-opacity="1" fill-rule="nonzero"/></g></g><g fill="#5e17eb" fill-opacity="1"><g transform="translate(9.519594, 25.853973)"><g><path d="M 0.972656 0.40625 C 1.285156 0.40625 1.316406 0.03125 1.347656 -0.1875 C 1.378906 -0.46875 1.472656 -0.753906 1.601562 -1.003906 C 1.695312 -1.253906 1.851562 -1.441406 1.914062 -1.695312 C 1.976562 -1.914062 2.101562 -2.101562 2.226562 -2.320312 C 2.382812 -2.605469 2.542969 -2.917969 2.699219 -3.199219 C 2.792969 -3.355469 2.917969 -3.511719 2.980469 -3.671875 C 3.011719 -3.765625 3.011719 -3.890625 3.042969 -3.984375 C 3.167969 -4.203125 3.386719 -4.359375 3.511719 -4.582031 C 3.640625 -4.832031 3.796875 -5.050781 3.921875 -5.300781 C 4.046875 -5.554688 4.171875 -5.835938 4.359375 -6.085938 C 4.421875 -6.148438 4.613281 -6.558594 4.738281 -6.558594 C 4.863281 -6.558594 5.082031 -6.023438 5.113281 -5.898438 C 5.238281 -5.679688 5.332031 -5.457031 5.457031 -5.238281 C 5.519531 -5.082031 5.585938 -4.957031 5.648438 -4.800781 C 5.679688 -4.707031 5.742188 -4.582031 5.835938 -4.515625 C 5.960938 -4.421875 5.960938 -4.421875 6.023438 -4.328125 C 6.054688 -4.265625 6.117188 -4.171875 6.148438 -4.109375 C 6.179688 -4.046875 6.148438 -3.984375 6.148438 -3.921875 C 6.148438 -3.828125 6.273438 -3.796875 6.304688 -3.703125 C 6.367188 -3.609375 6.398438 -3.480469 6.492188 -3.355469 C 6.558594 -3.261719 6.621094 -3.136719 6.652344 -3.042969 C 6.933594 -2.542969 7.246094 -2.101562 7.5625 -1.632812 C 7.875 -1.160156 8.34375 -0.753906 8.816406 -0.4375 C 9.066406 -0.28125 9.347656 -0.125 9.632812 0.03125 C 9.757812 0.09375 9.914062 0.1875 10.070312 0.1875 C 10.164062 0.1875 10.226562 0.15625 10.320312 0.15625 C 10.636719 0.15625 10.949219 0.3125 11.292969 0.34375 C 11.417969 0.375 11.511719 0.375 11.640625 0.375 C 11.828125 0.375 12.015625 0.34375 12.203125 0.3125 C 12.421875 0.25 12.707031 0.15625 12.925781 0.03125 C 13.175781 -0.125 13.269531 -0.3125 13.363281 -0.566406 C 13.457031 -0.722656 13.742188 -1.097656 13.742188 -1.316406 C 13.742188 -1.503906 13.519531 -1.539062 13.488281 -1.539062 C 13.238281 -1.539062 13.238281 -1.285156 13.082031 -1.097656 C 12.894531 -0.910156 12.613281 -0.753906 12.359375 -0.628906 C 12.140625 -0.46875 11.890625 -0.375 11.609375 -0.375 C 11.417969 -0.375 11.230469 -0.40625 11.074219 -0.46875 C 11.042969 -0.46875 10.886719 -0.535156 10.855469 -0.566406 C 10.792969 -0.597656 10.824219 -0.628906 10.792969 -0.660156 C 10.730469 -0.722656 10.699219 -0.785156 10.605469 -0.847656 C 10.476562 -0.941406 10.382812 -1.066406 10.257812 -1.160156 C 10.226562 -1.191406 10.164062 -1.285156 10.101562 -1.285156 C 10.070312 -1.285156 10.070312 -1.285156 10.070312 -1.253906 C 10.070312 -1.191406 10.195312 -1.128906 10.226562 -1.097656 C 10.257812 -1.066406 10.289062 -1.035156 10.289062 -1.003906 C 10.289062 -0.910156 9.976562 -1.191406 9.914062 -1.253906 C 9.757812 -1.441406 9.378906 -1.757812 9.378906 -1.914062 C 9.378906 -2.007812 9.441406 -2.007812 9.441406 -2.039062 C 9.441406 -2.070312 9.410156 -2.101562 9.378906 -2.164062 C 9.316406 -2.226562 9.222656 -2.289062 9.160156 -2.382812 C 9.128906 -2.414062 9.003906 -2.542969 8.972656 -2.574219 C 8.941406 -2.636719 8.941406 -2.636719 8.941406 -2.667969 C 8.941406 -2.699219 8.972656 -2.699219 8.972656 -2.730469 C 8.972656 -2.855469 8.753906 -3.199219 8.660156 -3.324219 C 8.597656 -3.417969 8.46875 -3.449219 8.40625 -3.546875 C 8.375 -3.640625 8.375 -3.765625 8.34375 -3.859375 C 8.25 -4.046875 8.1875 -4.203125 8.09375 -4.390625 C 8 -4.550781 7.90625 -4.675781 7.84375 -4.832031 C 7.71875 -5.082031 7.625 -5.363281 7.464844 -5.617188 C 7.339844 -5.867188 7.183594 -6.085938 7.089844 -6.367188 C 7.089844 -6.429688 7.089844 -6.492188 7.089844 -6.558594 C 7.089844 -6.746094 7.152344 -6.839844 7.339844 -6.996094 C 7.59375 -7.214844 7.875 -7.402344 8.15625 -7.59375 C 8.34375 -7.71875 8.46875 -7.90625 8.628906 -8.03125 C 9.097656 -8.375 9.570312 -8.722656 10.007812 -9.097656 C 10.195312 -9.285156 10.351562 -9.503906 10.574219 -9.664062 C 10.792969 -9.851562 11.011719 -10.007812 11.230469 -10.195312 C 11.324219 -10.320312 11.386719 -10.414062 11.511719 -10.507812 C 11.578125 -10.539062 11.671875 -10.574219 11.671875 -10.667969 C 11.671875 -10.761719 11.578125 -10.730469 11.578125 -10.792969 C 11.578125 -10.824219 11.578125 -10.855469 11.609375 -10.886719 C 11.640625 -10.949219 11.671875 -10.949219 11.703125 -10.949219 C 11.765625 -10.949219 11.828125 -10.886719 11.890625 -10.886719 C 12.015625 -10.886719 12.109375 -10.949219 12.234375 -11.042969 C 12.265625 -11.105469 12.328125 -11.136719 12.328125 -11.199219 C 12.328125 -11.230469 12.296875 -11.292969 12.296875 -11.292969 C 12.296875 -11.386719 12.582031 -11.417969 12.644531 -11.480469 C 12.675781 -11.542969 12.675781 -11.578125 12.675781 -11.609375 C 12.675781 -11.640625 12.644531 -11.703125 12.675781 -11.734375 C 12.707031 -11.796875 12.863281 -11.953125 12.925781 -11.953125 C 13.019531 -11.953125 13.050781 -11.921875 13.050781 -11.921875 C 13.050781 -11.859375 12.832031 -11.734375 12.832031 -11.703125 C 12.832031 -11.671875 12.832031 -11.671875 12.863281 -11.671875 C 12.894531 -11.671875 12.925781 -11.703125 12.957031 -11.734375 C 13.019531 -11.765625 13.050781 -11.828125 13.082031 -11.859375 C 13.144531 -11.921875 13.269531 -11.953125 13.363281 -12.015625 C 13.488281 -12.109375 13.585938 -12.203125 13.710938 -12.296875 C 13.773438 -12.390625 13.867188 -12.484375 13.960938 -12.546875 C 14.023438 -12.613281 14.054688 -12.644531 14.085938 -12.769531 C 14.085938 -12.800781 14.085938 -12.800781 14.085938 -12.832031 C 14.085938 -12.863281 14.085938 -12.863281 14.085938 -12.894531 C 14.085938 -12.925781 14.117188 -12.988281 14.179688 -13.019531 C 14.210938 -13.019531 14.242188 -13.050781 14.273438 -13.050781 C 14.460938 -13.050781 14.523438 -13.050781 14.554688 -13.082031 C 14.621094 -13.113281 14.652344 -13.175781 14.652344 -13.238281 C 14.652344 -13.269531 14.652344 -13.300781 14.652344 -13.332031 C 14.652344 -13.363281 14.652344 -13.363281 14.683594 -13.363281 C 14.683594 -13.363281 14.714844 -13.332031 14.746094 -13.332031 C 14.746094 -13.332031 14.871094 -13.332031 14.933594 -13.425781 C 15.027344 -13.488281 15.058594 -13.550781 15.121094 -13.617188 C 15.183594 -13.710938 15.246094 -13.773438 15.339844 -13.835938 C 15.402344 -13.898438 15.464844 -13.960938 15.464844 -14.023438 C 15.464844 -14.023438 15.433594 -14.054688 15.433594 -14.085938 C 15.433594 -14.117188 15.496094 -14.117188 15.527344 -14.117188 C 15.558594 -14.148438 15.59375 -14.148438 15.65625 -14.148438 C 15.6875 -14.179688 15.75 -14.179688 15.8125 -14.210938 C 15.90625 -14.273438 15.9375 -14.335938 16.03125 -14.398438 C 16.125 -14.460938 16.28125 -14.492188 16.375 -14.589844 C 16.4375 -14.683594 16.46875 -14.746094 16.5625 -14.808594 C 16.660156 -14.871094 16.722656 -14.933594 16.816406 -14.996094 C 16.910156 -15.121094 17.003906 -15.121094 17.128906 -15.214844 C 17.316406 -15.308594 17.535156 -15.496094 17.664062 -15.65625 C 17.820312 -15.8125 17.945312 -16 18.101562 -16.1875 C 18.320312 -16.40625 18.539062 -16.660156 18.730469 -16.910156 C 18.886719 -17.128906 19.011719 -17.347656 19.105469 -17.601562 C 19.230469 -17.820312 19.324219 -18.195312 19.261719 -18.445312 C 19.230469 -18.636719 19.042969 -18.886719 18.917969 -19.011719 C 18.761719 -19.199219 18.539062 -19.449219 18.320312 -19.542969 C 18.257812 -19.574219 17.914062 -19.734375 17.695312 -19.734375 C 17.601562 -19.734375 17.503906 -19.703125 17.503906 -19.640625 C 17.503906 -19.542969 17.601562 -19.355469 17.601562 -19.261719 C 17.601562 -19.011719 17.441406 -18.792969 17.378906 -18.539062 C 17.316406 -18.382812 17.285156 -18.414062 17.191406 -18.289062 C 17.128906 -18.195312 17.128906 -18.101562 17.097656 -18.007812 C 16.972656 -17.789062 16.785156 -17.601562 16.628906 -17.378906 C 16.34375 -17.035156 16.0625 -16.691406 15.75 -16.40625 C 15.371094 -16.03125 15.058594 -15.59375 14.683594 -15.246094 C 14.589844 -15.152344 14.523438 -15.027344 14.460938 -14.933594 C 14.367188 -14.839844 14.273438 -14.746094 14.179688 -14.652344 C 14.085938 -14.554688 13.992188 -14.460938 13.960938 -14.335938 C 13.929688 -14.242188 13.960938 -14.148438 13.898438 -14.054688 C 13.867188 -13.992188 13.773438 -13.960938 13.710938 -13.898438 C 13.679688 -13.835938 13.648438 -13.773438 13.617188 -13.742188 C 13.550781 -13.617188 13.425781 -13.550781 13.332031 -13.457031 C 13.113281 -13.269531 12.925781 -13.082031 12.675781 -12.894531 C 12.453125 -12.707031 12.328125 -12.453125 12.109375 -12.265625 C 11.890625 -12.078125 11.671875 -11.953125 11.449219 -11.765625 C 11.324219 -11.671875 11.199219 -11.578125 11.074219 -11.417969 C 11.011719 -11.355469 10.980469 -11.230469 10.886719 -11.167969 C 10.792969 -11.105469 10.667969 -11.105469 10.574219 -11.042969 C 10.476562 -10.949219 10.382812 -10.855469 10.289062 -10.792969 C 10.070312 -10.574219 9.820312 -10.414062 9.570312 -10.226562 C 9.410156 -10.070312 9.285156 -9.882812 9.128906 -9.726562 C 9.035156 -9.632812 8.910156 -9.601562 8.847656 -9.535156 C 8.753906 -9.472656 8.660156 -9.347656 8.566406 -9.285156 C 8.34375 -9.097656 8.125 -8.941406 7.90625 -8.785156 C 7.78125 -8.660156 6.996094 -7.9375 6.683594 -7.9375 C 6.621094 -7.9375 6.589844 -8 6.589844 -8.0625 C 6.589844 -8.25 6.933594 -8.5 7.058594 -8.628906 C 7.277344 -8.816406 7.464844 -8.972656 7.6875 -9.160156 C 7.90625 -9.347656 8.125 -9.570312 8.375 -9.757812 C 8.597656 -9.914062 8.753906 -10.132812 8.972656 -10.289062 C 9.097656 -10.382812 9.191406 -10.414062 9.316406 -10.476562 C 9.441406 -10.574219 9.535156 -10.699219 9.632812 -10.792969 C 9.820312 -10.949219 10.007812 -11.136719 10.226562 -11.324219 C 10.730469 -11.703125 11.199219 -12.171875 11.703125 -12.582031 C 11.828125 -12.675781 12.769531 -13.269531 12.769531 -13.488281 C 12.769531 -13.519531 12.738281 -13.519531 12.738281 -13.519531 C 12.613281 -13.519531 12.328125 -13.269531 12.265625 -13.207031 C 12.046875 -13.050781 11.828125 -12.863281 11.609375 -12.675781 C 11.199219 -12.265625 10.730469 -11.921875 10.289062 -11.542969 C 10.070312 -11.386719 9.851562 -11.230469 9.632812 -11.074219 C 9.441406 -10.917969 9.222656 -10.730469 9.097656 -10.539062 C 9.035156 -10.507812 9.066406 -10.476562 9.003906 -10.445312 C 9.003906 -10.445312 8.972656 -10.414062 8.941406 -10.414062 C 8.816406 -10.414062 8.722656 -10.351562 8.597656 -10.257812 C 8.40625 -10.132812 8.1875 -10.007812 8.03125 -9.820312 C 7.8125 -9.632812 7.5625 -9.472656 7.339844 -9.316406 C 7.121094 -9.160156 6.964844 -8.972656 6.746094 -8.816406 C 6.621094 -8.753906 6.335938 -8.53125 6.148438 -8.53125 C 5.960938 -8.53125 5.929688 -8.722656 5.929688 -8.753906 C 5.929688 -8.816406 5.992188 -8.847656 6.054688 -8.910156 C 6.117188 -9.003906 6.148438 -9.128906 6.210938 -9.191406 C 6.304688 -9.316406 6.398438 -9.378906 6.460938 -9.503906 C 6.523438 -9.601562 6.621094 -9.726562 6.683594 -9.820312 C 6.808594 -10.007812 6.871094 -10.195312 6.996094 -10.382812 C 7.058594 -10.476562 7.214844 -10.605469 7.277344 -10.730469 C 7.308594 -10.824219 7.277344 -10.886719 7.277344 -10.949219 C 7.277344 -11.136719 7.433594 -11.199219 7.527344 -11.292969 C 7.59375 -11.386719 7.625 -11.480469 7.65625 -11.578125 C 7.78125 -11.828125 7.9375 -12.078125 8.09375 -12.328125 C 8.28125 -12.644531 8.46875 -12.925781 8.628906 -13.238281 C 8.941406 -13.867188 9.222656 -14.492188 9.503906 -15.152344 C 9.789062 -15.75 10.101562 -16.34375 10.445312 -16.910156 C 10.792969 -17.472656 10.980469 -18.320312 10.980469 -18.761719 C 10.980469 -18.824219 10.917969 -19.011719 10.917969 -19.042969 C 10.824219 -19.167969 10.699219 -19.324219 10.605469 -19.417969 C 10.476562 -19.542969 10.382812 -19.609375 10.257812 -19.640625 C 10.164062 -19.671875 10.039062 -19.671875 9.882812 -19.703125 C 9.820312 -19.703125 9.789062 -19.703125 9.726562 -19.703125 C 9.570312 -19.703125 9.410156 -19.542969 9.253906 -19.480469 C 9.191406 -19.449219 8.972656 -19.449219 8.941406 -19.386719 C 8.941406 -19.355469 8.910156 -19.324219 8.910156 -19.324219 C 8.910156 -19.261719 8.941406 -19.230469 8.941406 -19.136719 C 8.941406 -19.011719 8.847656 -18.855469 8.722656 -18.699219 C 8.628906 -18.539062 8.53125 -18.414062 8.5 -18.257812 C 8.5 -18.164062 8.5 -18.070312 8.46875 -17.945312 C 8.4375 -17.820312 8.34375 -17.695312 8.3125 -17.566406 C 8.1875 -17.253906 8.03125 -16.941406 7.84375 -16.628906 C 7.71875 -16.40625 7.59375 -16.1875 7.464844 -15.9375 C 7.152344 -15.339844 6.902344 -14.683594 6.652344 -14.054688 C 6.398438 -13.425781 6.023438 -12.894531 5.648438 -12.328125 C 5.554688 -12.171875 5.457031 -12.015625 5.332031 -11.859375 C 5.269531 -11.734375 5.113281 -11.578125 5.113281 -11.480469 C 5.113281 -11.449219 5.113281 -11.417969 5.113281 -11.417969 C 5.113281 -11.386719 5.113281 -11.386719 5.144531 -11.386719 C 5.175781 -11.386719 5.269531 -11.417969 5.300781 -11.417969 C 5.332031 -11.417969 5.363281 -11.386719 5.363281 -11.355469 C 5.363281 -11.167969 4.957031 -11.230469 4.957031 -11.105469 C 4.957031 -11.042969 5.019531 -11.042969 5.082031 -10.980469 C 5.207031 -10.917969 5.238281 -10.855469 5.238281 -10.792969 C 5.238281 -10.605469 5.082031 -10.382812 4.988281 -10.257812 C 4.863281 -10.039062 4.707031 -9.820312 4.582031 -9.601562 C 4.296875 -9.160156 4.046875 -8.691406 3.796875 -8.21875 C 3.449219 -7.65625 3.074219 -7.089844 2.730469 -6.523438 C 2.542969 -6.273438 2.414062 -6.023438 2.289062 -5.773438 C 2.132812 -5.488281 2.007812 -5.238281 1.851562 -4.988281 C 1.757812 -4.800781 1.632812 -4.644531 1.472656 -4.484375 C 1.316406 -4.265625 1.191406 -3.984375 1.066406 -3.734375 C 0.878906 -3.417969 0.785156 -2.949219 0.535156 -2.949219 C 0.375 -2.949219 0.28125 -3.105469 0.125 -3.105469 C -0.03125 -3.105469 -0.125 -2.574219 -0.15625 -2.445312 C -0.21875 -2.320312 -0.28125 -2.195312 -0.34375 -2.070312 C -0.40625 -1.976562 -0.566406 -1.851562 -0.597656 -1.757812 C -0.628906 -1.726562 -0.628906 -1.695312 -0.628906 -1.664062 C -0.628906 -1.472656 -0.375 -1.316406 -0.3125 -1.160156 C -0.28125 -1.128906 -0.28125 -1.097656 -0.28125 -1.066406 C -0.28125 -0.972656 -0.3125 -0.910156 -0.3125 -0.847656 C -0.3125 -0.722656 -0.21875 -0.46875 -0.15625 -0.34375 C -0.09375 -0.1875 0 -0.21875 0.125 -0.15625 C 0.28125 -0.09375 0.25 -0.03125 0.34375 0.09375 C 0.4375 0.21875 0.753906 0.40625 0.941406 0.40625 Z M 14.808594 -14.085938 C 14.777344 -14.085938 14.746094 -14.117188 14.746094 -14.148438 C 14.746094 -14.210938 14.902344 -14.398438 15.058594 -14.621094 C 15.214844 -14.777344 15.402344 -14.964844 15.527344 -15.089844 C 15.625 -15.183594 16.25 -15.75 16.3125 -15.75 C 16.375 -15.75 16.375 -15.71875 16.375 -15.6875 C 16.375 -15.527344 15.6875 -14.996094 15.625 -14.933594 C 15.464844 -14.746094 15.277344 -14.589844 15.121094 -14.398438 C 15.058594 -14.335938 14.902344 -14.085938 14.808594 -14.085938 Z M 6.589844 -12.078125 C 6.558594 -12.078125 6.492188 -12.078125 6.492188 -12.171875 C 6.492188 -12.265625 6.589844 -12.453125 6.714844 -12.484375 C 6.777344 -12.484375 6.839844 -12.421875 6.808594 -12.328125 C 6.808594 -12.203125 6.683594 -12.046875 6.589844 -12.078125 Z M 5.710938 -10.730469 C 5.648438 -10.730469 5.617188 -10.792969 5.617188 -10.917969 C 5.617188 -11.042969 6.054688 -11.734375 6.210938 -11.734375 C 6.273438 -11.734375 6.304688 -11.671875 6.304688 -11.542969 C 6.304688 -11.417969 5.898438 -10.730469 5.710938 -10.730469 Z M 4.863281 -9.160156 C 4.800781 -9.160156 4.738281 -9.191406 4.738281 -9.285156 C 4.738281 -9.378906 4.925781 -9.664062 5.050781 -9.664062 C 5.113281 -9.664062 5.144531 -9.570312 5.144531 -9.503906 C 5.175781 -9.316406 4.988281 -9.160156 4.863281 -9.160156 Z M 4.265625 -8.28125 C 4.234375 -8.28125 4.203125 -8.3125 4.203125 -8.34375 C 4.203125 -8.4375 4.515625 -8.910156 4.613281 -8.910156 C 4.644531 -8.910156 4.675781 -8.878906 4.675781 -8.785156 C 4.675781 -8.691406 4.421875 -8.28125 4.265625 -8.28125 Z M 3.859375 -7.496094 C 3.859375 -7.496094 3.828125 -7.496094 3.828125 -7.527344 C 3.828125 -7.625 3.984375 -7.90625 4.046875 -7.90625 C 4.078125 -7.90625 4.078125 -7.875 4.078125 -7.84375 C 4.078125 -7.6875 3.953125 -7.496094 3.859375 -7.496094 Z M 8.597656 -1.222656 C 8.375 -1.222656 8.0625 -1.664062 8.0625 -1.664062 C 7.875 -1.914062 7.65625 -2.101562 7.527344 -2.351562 C 7.308594 -2.699219 7.152344 -3.042969 6.933594 -3.386719 C 6.839844 -3.578125 6.460938 -4.046875 6.460938 -4.296875 C 6.460938 -4.390625 6.492188 -4.421875 6.523438 -4.421875 C 6.652344 -4.421875 6.871094 -3.953125 6.933594 -3.859375 C 7.121094 -3.578125 7.246094 -3.292969 7.402344 -3.011719 C 7.5625 -2.730469 7.875 -2.320312 8.15625 -1.945312 C 8.40625 -1.632812 8.628906 -1.347656 8.628906 -1.253906 C 8.628906 -1.253906 8.597656 -1.222656 8.597656 -1.222656 Z M 8.597656 -1.222656 "/></g></g></g></svg>